PathFileType	4	(X/Y/Z)	C:\Users\willi\Desktop\Data_PaperCallum_v2\17_Akif\Gait01\marker_experimental_temp.trc
DataRate	CameraRate	NumFrames	NumMarkers	Units	OrigDataRate	OrigDataStartFrame	OrigNumFrames
100.000000	100.000000	7	27	mm	100.000000	0	180
Frame#	Time	C7			T10			Clav			Sternum			Right_Back			PCL_CRAN			PCL_RECHTS			PCL_LINKS			RCL_UL_CRAN			RCL_UL_POST			RCL_UL_ANT			RCL_LL_CRAN			RCL_LL_POST			RCL_LL_ANT			Right_Heel			Right_Toe			Right_M5			LCL_UL_CRAN			LCL_UL_POST			LCL_UL_ANT			LCL_LL_CRAN			LCL_LL_POST			LCL_LL_ANT			Left_Heel			Left_Toe			Left_M5			*26			
		X1	Y1	Z1	X2	Y2	Z2	X3	Y3	Z3	X4	Y4	Z4	X5	Y5	Z5	X6	Y6	Z6	X7	Y7	Z7	X8	Y8	Z8	X9	Y9	Z9	X10	Y10	Z10	X11	Y11	Z11	X12	Y12	Z12	X13	Y13	Z13	X14	Y14	Z14	X15	Y15	Z15	X16	Y16	Z16	X17	Y17	Z17	X18	Y18	Z18	X19	Y19	Z19	X20	Y20	Z20	X21	Y21	Z21	X22	Y22	Z22	X23	Y23	Z23	X24	Y24	Z24	X25	Y25	Z25	X26	Y26	Z26	X27	Y27	Z27	

1	0	1596.193725585938	1407.318725585938	244.0671844482421	1646.801635742188	1192.791015625	244.1603698730468	1459.426025390625	1326.139038085938	244.1588592529296	1405.862670898438	1161.32421875	258.6110229492186	1636.5830078125	1347.509155273438	129.8951873779296	1638.970092773438	1018.510681152344	232.496124267578	1647.2998046875	958.8312377929689	208.9005279541014	1651.322021484375	959.2093505859376	259.3833007812499	1455.239135742188	734.3963012695314	64.48281860351554	1446.78369140625	669.0742187500001	67.58408355712882	1403.688110351563	694.1078491210939	63.1832962036132	1393.55908203125	387.4225158691407	86.83592224121085	1414.942138671875	326.1588134765626	87.31332397460929	1364.85107421875	327.8411254882813	88.45761108398429	1424.878173828125	30.4950714111329	188.6230163574218	1242.352661132813	55.75290679931648	134.0227661132812	1291.664672851563	33.7853088378907	91.44900512695304	1556.696411132813	748.8215942382814	410.0479736328124	1574.835327148438	686.7384643554689	397.4125366210936	1526.051635742188	690.9104003906251	406.8589782714843	1642.732299804688	376.0185852050782	367.6681823730468	1675.69580078125	319.5836486816407	368.1410522460936	1625.978393554688	312.9814453125001	364.4473876953124	1757.389404296875	37.64855957031261	280.1427307128905	1549.884765625	34.35493850708017	287.3012390136718	1597.111572265625	14.8542890548707	349.7549438476561	-88.11188507080102	726.4788208007813	-3209.857177734375	
2	0.01	1582.68408203125	1403.79052734375	243.3019561767577	1633.526123046875	1189.640625	243.1663665771483	1445.74658203125	1322.417236328125	243.3549652099609	1392.7783203125	1157.809448242188	258.411651611328	1623.330810546875	1344.016845703125	129.731231689453	1625.7041015625	1015.083557128906	230.8303222656249	1633.7919921875	955.1751098632814	207.5921630859374	1638.224853515625	955.9457397460939	258.0448913574218	1443.921752929688	729.2535400390626	64.5282669067382	1436.476928710938	664.3692626953126	68.41658020019523	1392.990844726563	688.6637573242189	64.19097900390616	1374.28466796875	384.6571350097657	89.00148010253898	1392.129028320313	321.9139709472657	89.42638397216788	1342.036499023438	327.3395080566407	89.87988281249991	1379.267211914063	28.86249923706063	186.900177001953	1198.67919921875	62.21440124511726	133.2967987060546	1246.4931640625	38.71826934814461	90.23288726806634	1546.828247070313	747.5543823242189	409.9262084960936	1565.641235351563	685.8023071289064	397.2057800292968	1516.820068359375	689.3113403320314	406.7198486328124	1638.056518554688	376.0210571289064	367.4208374023436	1671.977172851563	320.073944091797	367.7525024414061	1622.32958984375	312.6435852050782	364.2697753906249	1757.096557617188	38.42949676513683	279.2492065429686	1549.79345703125	34.23415756225595	287.2774353027343	1597.311279296875	14.82258319854746	349.7099609374999	-88.04735565185571	726.4024047851563	-3209.2216796875	
3	0.02	1569.0771484375	1400.475341796875	242.4410552978515	1620.0625	1186.625854492188	242.1549072265624	1431.960327148438	1318.95703125	242.4927978515624	1379.49169921875	1154.522583007813	258.1373291015624	1609.936279296875	1340.677978515625	129.446807861328	1612.198852539063	1011.83642578125	229.246353149414	1620.075439453125	951.7439575195314	206.2994384765624	1624.870971679688	952.8333129882814	256.7254638671874	1432.047973632813	724.4724731445314	64.47296142578116	1425.757568359375	659.8543090820314	68.82539367675773	1381.874633789063	683.3757324218751	64.81027221679679	1355.2158203125	382.1345520019532	91.00500488281241	1369.610961914063	318.2625427246094	91.25550079345695	1319.726684570313	327.0013427734376	91.27007293701163	1336.73876953125	27.63644790649422	185.4050140380859	1157.98779296875	68.94637298583991	133.2039794921874	1204.243896484375	43.92366027832038	89.63905334472649	1536.720092773438	746.2883911132814	409.7965698242186	1556.20361328125	684.8513183593751	397.0429687499999	1507.353393554688	687.7208862304689	406.6249389648436	1632.97802734375	376.0443420410157	367.2257690429686	1667.86962890625	320.6451416015626	367.4312133789061	1618.33935546875	312.3668823242189	364.1500549316405	1756.756469726563	39.51792526245128	278.5106506347655	1549.712036132813	34.12350845336923	287.2786865234374	1597.498901367188	14.81645011901865	349.6731872558593	-88.02954864501977	726.393798828125	-3209.087158203125	
4	0.03	1555.373168945313	1397.373779296875	241.4846191406249	1606.410766601563	1183.747436523438	241.1260681152343	1418.067504882813	1315.758911132813	241.5724792480468	1366.0029296875	1151.464477539063	257.7881164550781	1596.399780273438	1337.493286132813	129.0419769287109	1598.45458984375	1008.770324707031	227.7444305419921	1606.150512695313	948.5386352539064	205.022491455078	1611.260375976563	949.8728637695314	255.4251861572265	1419.614135742188	720.0590209960939	64.32061767578116	1414.600341796875	655.5440063476564	68.82398223876945	1370.318115234375	678.2669067382814	65.04922485351554	1336.358032226563	379.8509826660157	92.84778594970695	1347.405517578125	315.1972961425782	92.79063415527335	1297.932373046875	326.8135681152344	92.62967681884757	1297.330322265625	26.77938461303719	184.1513519287109	1120.308959960938	75.88278198242195	133.7581481933593	1164.947875976563	49.33720397949226	89.67846679687493	1526.370239257813	745.0240478515626	409.6583557128905	1546.519409179688	683.8848876953126	396.9222106933593	1497.6494140625	686.1392822265626	406.5743713378905	1627.495971679688	376.0882873535157	367.0826721191405	1663.37060546875	321.2969665527345	367.1800231933593	1614.001098632813	312.151336669922	364.0892944335936	1756.369750976563	40.91696929931651	277.9325561523436	1549.6396484375	34.02368545532236	287.3042907714843	1597.672119140625	14.83590984344492	349.6456298828124	-88.05847167968774	726.4530029296875	-3209.453369140625	
5	0.04	1541.572265625	1394.486938476563	240.4330596923827	1592.57177734375	1181.0078125	240.0800628662109	1404.068359375	1312.823852539063	240.5943603515624	1352.312255859375	1148.637451171875	257.3643188476562	1582.721313476563	1334.46435546875	128.5169830322265	1584.47216796875	1005.887878417969	226.3251037597655	1592.017944335938	945.5614013671876	203.7617645263671	1597.393798828125	947.0670166015626	254.1445159912109	1406.611694335938	716.0278320312501	64.0811004638671	1402.943969726563	651.4738769531251	68.45042419433585	1358.268676757813	673.3940429687501	64.93365478515616	1317.72705078125	377.7959289550782	94.53389739990226	1325.563354492188	312.6952514648438	94.01232910156241	1276.68310546875	326.7416992187501	93.96287536621085	1261.13232421875	26.20404815673836	183.1702728271484	1085.713012695313	82.85420989990241	134.9892120361328	1128.678344726563	54.79900741577156	90.37292480468743	1515.774658203125	743.7620849609376	409.5097351074218	1536.581176757813	682.9021606445314	396.8376464843749	1487.702026367188	684.5673828125001	406.5678405761718	1621.609130859375	376.1529541015626	366.9913330078124	1658.475463867188	322.0292968750001	367.0065307617186	1609.301025390625	311.9967346191407	364.0902709960936	1755.938110351563	42.63431930542003	277.5277099609374	1549.573486328125	33.93656539917001	287.3531799316405	1597.825073242188	14.88035869598398	349.6295471191405	-88.13411712646509	726.5800170898438	-3210.3203125	
6	0.05	1527.675048828125	1391.817749023438	239.2872314453124	1578.547241210938	1178.411254882813	239.0173034667968	1389.963989257813	1310.154296875	239.5591888427734	1338.419921875	1146.046264648438	256.8665771484374	1568.901977539063	1331.594604492188	127.8723907470702	1570.253662109375	1003.194152832031	224.9892578124999	1577.679321289063	942.8167724609376	202.5180511474609	1583.27294921875	944.4207153320314	252.8843231201171	1393.028686523438	712.4034423828126	63.7726402282714	1390.685302734375	647.7025146484376	67.77931213378898	1345.639282226563	668.8538818359376	64.52004241943351	1299.352294921875	375.9491577148438	96.07178497314445	1304.184692382813	310.7057189941407	94.90311431884757	1256.035888671875	326.7216796875001	95.2790451049804	1228.29296875	25.77417564392097	182.507339477539	1054.306396484375	89.55988311767585	136.9372863769531	1095.553588867188	60.03444671630866	91.74768066406243	1504.924682617188	742.5043334960939	409.3468627929686	1526.375	681.9020996093751	396.776885986328	1477.499755859375	683.0067749023439	406.6034545898436	1615.316650390625	376.2394104003907	366.9521484374999	1653.180053710938	322.842742919922	366.9248962402343	1604.222778320313	311.902313232422	364.1579589843749	1755.464965820313	44.68331527709972	277.3148498535155	1549.50732421875	33.86557006835947	287.4244995117186	1597.948608398438	14.94713973999033	349.6280822753905	-88.25649261474634	726.7748413085938	-3211.688232421875	
7	0.06	1513.682861328125	1389.370239257813	238.0487060546874	1564.339965820313	1175.96533203125	237.9385833740234	1375.755859375	1307.753540039063	238.4682464599609	1324.327392578125	1143.6982421875	256.2959594726562	1554.943237304688	1328.889892578125	127.1092681884765	1555.802856445313	1000.697448730469	223.738052368164	1563.138061523438	940.3117675781251	201.2925720214843	1568.901000976563	941.9421997070314	251.6459960937499	1378.852905273438	709.2182617187501	63.42177200317374	1377.692626953125	644.3059082031251	66.92462158203116	1332.3203125	664.7750854492189	63.90346145629875	1281.278198242188	374.2797546386719	97.47395324707023	1283.427124023438	309.1405944824219	95.4711380004882	1236.0771484375	326.6581115722657	96.59470367431634	1198.999633789063	25.32958221435554	182.2106475830077	1026.208129882813	95.57738494873053	139.6351318359374	1065.71923828125	64.67169189453132	93.81537628173821	1493.80615234375	741.2545166015626	409.1637268066405	1515.8798828125	680.8848876953126	396.7201538085936	1467.024780273438	681.4604492187501	406.6758728027343	1608.61865234375	376.3511657714845	366.9673767089843	1647.482788085938	323.7398681640626	366.9546508789061	1598.75244140625	311.866180419922	364.2986450195311	1754.953979492188	47.08338928222667	277.3124084472655	1549.430908203125	33.81533432006845	287.5187988281249	1598.032104492188	15.02990245819102	349.6438903808593	nan	nan	nan	
